<svg fill="#000000" xmlns="http://www.w3.org/2000/svg"  viewBox="0 0 32 32" width="64px" height="64px"><path d="M8,28c-1.654,0-3-1.346-3-3V5h22v12c0,1.654-1.346,3-3,3s-3-1.346-3-3v-2c0-0.552-0.448-1-1-1s-1,0.448-1,1v6 c0,1.654-1.346,3-3,3s-3-1.346-3-3v-8c0-0.552-0.448-1-1-1s-1,0.448-1,1v12C11,26.654,9.654,28,8,28z M7,7v18c0,0.552,0.448,1,1,1 s1-0.448,1-1V13c0-1.654,1.346-3,3-3s3,1.346,3,3v8c0,0.552,0.448,1,1,1s1-0.448,1-1v-6c0-1.654,1.346-3,3-3s3,1.346,3,3v2 c0,0.552,0.448,1,1,1s1-0.448,1-1V7H7z"/></svg>